<svg version="1.1" xmlns="http://www.w3.org/2000/svg" viewBox="0 0 2688 1536">

<path transform="translate(0,0)" fill="#ffffff" d="M 868.944 1177.79 C 893.935 1167.11 916.055 1168.42 941.168 1178.05 C 970.968 1189.48 982.252 1211.91 1005.44 1230.02 C 1025.02 1245.3 1050.66 1248.58 1070.55 1264.77 C 1089.13 1279.89 1098.51 1297.26 1112.96 1315.45 C 1119.84 1324.11 1133.37 1328.91 1141.93 1339.3 C 1162.4 1364.15 1179.66 1390.9 1196.35 1418.32 C 1217.9 1453.74 1241.97 1494.23 1257.95 1532.51 C 1258.44 1533.67 1258.92 1534.83 1259.38 1536 L 1251.31 1536 C 1233.54 1514.69 1209.68 1480.11 1189.96 1462 C 1166.99 1440.89 1136.34 1419.1 1114.03 1396.42 C 1096.71 1378.81 1088.9 1359.71 1069.58 1341.82 C 1046.19 1320.16 1022.26 1326.72 1002 1309.57 C 989.628 1296.76 985.373 1278.21 973.265 1264.86 C 954.455 1244.13 930.875 1241.7 911.673 1219.98 C 894.311 1200.35 873.358 1193.73 847.616 1191.96 C 854.836 1185.85 860.494 1181.93 868.944 1177.79 z"/>
<path transform="translate(0,0)" fill="#ffffff" d="M 1278.64 1504.84 C 1279.22 1499.74 1278.08 1483.47 1277.78 1477.33 C 1277.03 1462.54 1276.45 1447.75 1276.04 1432.95 C 1274.52 1381.18 1273.37 1320.71 1275.35 1269.06 C 1276.36 1236.98 1279.35 1204.99 1284.31 1173.28 C 1288.87 1145.15 1295.75 1115.31 1299.43 1087.39 C 1302.79 1058.02 1300.05 1029.32 1303.32 999.791 C 1307.69 958.425 1326.19 920.743 1329.94 879.25 C 1333.4 840.85 1334.13 797.848 1350.08 762.029 C 1361.27 736.927 1371.37 715.116 1378.4 688.133 C 1382.28 673.132 1385.12 657.881 1386.9 642.488 C 1390.04 614.107 1389.86 592.334 1399.72 564.961 C 1414.43 524.143 1445.2 496.503 1459.03 455.816 C 1468.38 428.306 1467.51 401.898 1472.37 373.67 C 1481.36 321.421 1521.95 310.469 1545.94 269.972 C 1563.44 239.146 1562.73 209.139 1585.1 180.095 C 1607.56 150.937 1635.46 139.455 1662.6 117.248 C 1681.75 101.576 1683.81 75.6641 1709.09 60.5589 C 1757.64 31.5471 1823.85 35.1824 1876.73 46.0936 C 1831.21 54.578 1800.26 60.6114 1763.8 93.7264 C 1755.65 101.128 1748.05 112.178 1740.86 118.855 C 1730.59 128.391 1719.19 137.503 1708.81 147.166 C 1688.58 162.501 1684.02 192.534 1670.53 210.389 C 1647.71 240.591 1620.35 263.635 1607.26 300.93 C 1597.37 329.077 1597.53 360.636 1582.47 387.068 C 1562.8 421.611 1529.96 448.526 1515.95 486.717 C 1503.71 519.631 1507.52 559.91 1496.89 592.991 C 1486.87 624.147 1472.7 654.729 1462.61 686.14 C 1449.3 727.581 1442.98 769.826 1432.76 811.754 C 1428.31 830.019 1417.62 854.561 1411.43 873.115 C 1400.58 906.491 1390.79 940.202 1382.07 974.197 C 1368.03 1028.33 1358.09 1082.51 1347.8 1137.35 C 1340.95 1173.84 1327.09 1214.12 1318.28 1251.11 C 1303.82 1314.44 1293.38 1378.63 1287.04 1443.28 C 1285.48 1458.83 1281.23 1487.57 1281.11 1501.82 C 1280.25 1502.82 1279.46 1503.82 1278.64 1504.84 z"/>
<path transform="translate(0,0)" fill="#ffffff" d="M 1450.71 36.0348 C 1455.06 33.4359 1458.04 31.6449 1462.69 29.5661 L 1453.31 37.4357 C 1445.15 45.2168 1438.34 52.9842 1433.76 63.4302 C 1427.03 78.7793 1425.25 96.1013 1420.8 112.112 C 1415.67 130.542 1408.11 148.164 1402.68 166.532 C 1397.49 184.032 1397.56 201.53 1393.96 219.003 C 1388.38 246.128 1377.62 271.311 1377.47 299.487 C 1377.38 317.23 1378.14 337.143 1373.25 354.344 C 1366.29 378.829 1357.38 393.101 1354 419.373 C 1350.12 449.505 1357.37 483.111 1351.15 511.886 C 1345.32 538.853 1332.6 558 1329.22 587.507 C 1324.73 626.655 1340.95 649.1 1338.66 687.29 C 1336.61 721.394 1312.08 755.581 1312.42 787.418 C 1312.75 818.882 1327.79 844.696 1324.59 879.153 C 1320.89 918.856 1304.78 952.063 1299.01 990.497 C 1294.63 1019.71 1298.04 1052.44 1294.65 1081.84 C 1290.07 1121.63 1280.39 1160.61 1276.04 1200.58 C 1273.08 1227.7 1271.86 1254.01 1270.89 1281.24 C 1270.45 1293.5 1270.93 1308.72 1270.15 1320.48 C 1271.32 1329.87 1271.19 1378.07 1270.74 1389.45 C 1269.56 1383.52 1268.7 1380.1 1268.35 1373.86 C 1262.29 1326.19 1251.75 1276.8 1240.72 1229.96 C 1241.64 1224.7 1241.1 1200.73 1241.05 1193.74 L 1240.65 1117.39 L 1240.36 958.789 C 1240.24 937.272 1240.89 912.576 1239.96 891.356 C 1241.27 872.793 1240.75 848.404 1241.4 828.923 C 1242.73 783.15 1245.39 737.425 1249.36 691.805 C 1252.41 657.609 1256.44 622.576 1261.32 588.566 C 1263.48 573.539 1268.13 561.213 1269.84 545.242 C 1273.08 515.096 1268.13 482.825 1272.98 453.496 C 1277.46 426.357 1296.22 403.849 1305.23 376.798 C 1315.52 345.914 1317.76 318.533 1323.39 286.649 C 1329.3 253.133 1351.37 231.542 1364.07 201.297 C 1390.58 138.202 1387.45 77.6021 1450.71 36.0348 z"/>
<path transform="translate(0,0)" fill="#D4AF37" d="M 1270.15 1320.48 C 1271.32 1329.87 1271.19 1378.07 1270.74 1389.45 C 1269.56 1383.52 1268.7 1380.1 1268.35 1373.86 C 1271.14 1369.37 1269.19 1330.57 1270.15 1320.48 z"/>
<path transform="translate(0,0)" fill="#ffffff" d="M 1298.36 1496.29 L 1302.4 1480.13 C 1310.55 1448.11 1319.94 1421.32 1331.85 1390.69 C 1377.04 1273.39 1447.92 1167.69 1539.29 1081.35 C 1557.05 1064.26 1575.79 1046.61 1594.84 1030.97 C 1613.94 1015.29 1642.01 1011.28 1661.42 997.053 C 1686.85 978.421 1699.64 955.813 1727.93 938.998 C 1792.68 900.515 1910.75 914.598 1979.64 932.369 C 1981.37 932.689 1983.13 932.89 1984.77 933.548 L 1984.48 933.449 L 1985.43 933.957 C 1985.48 934.115 1985.54 934.273 1985.6 934.431 C 1984.85 935.334 1968.03 935.049 1965.77 934.965 C 1937.12 937.433 1896.59 953.672 1876.23 973.767 C 1863.5 986.325 1849.84 1001.1 1834.2 1009.73 C 1806.09 1025.24 1784.94 1027.76 1758.34 1048.36 C 1737.47 1064.51 1720.91 1092.34 1701.14 1104.71 C 1677.24 1119.66 1654.36 1114.62 1628.11 1134.99 C 1602.71 1154.71 1588.02 1179.82 1564.86 1199.77 C 1536.73 1224 1502.65 1245.19 1473.1 1268.21 C 1443.74 1291.09 1418.56 1318.82 1394.49 1347.11 C 1357.94 1390.09 1322.3 1446.33 1300.45 1498.79 C 1299.62 1501.36 1296.46 1507.56 1295.15 1510.29 C 1296.03 1505.59 1297.23 1500.94 1298.36 1496.29 z"/>
<path transform="translate(0,0)" fill="#D4AF37" d="M 1979.64 932.369 C 1981.37 932.689 1983.13 932.89 1984.77 933.548 L 1984.48 933.449 L 1985.43 933.957 C 1985.48 934.115 1985.54 934.273 1985.6 934.431 C 1984.85 935.334 1968.03 935.049 1965.77 934.965 C 1969.18 934.244 1979.36 934.671 1979.64 932.369 z"/>
<path transform="translate(0,0)" fill="#ffffff" d="M 1355.28 1116.77 C 1360.08 1096.99 1364.04 1073.28 1368.35 1052.97 C 1376.21 1015.68 1385.18 978.637 1395.24 941.881 C 1402.97 914.669 1411.39 887.661 1420.5 860.883 C 1426.57 843.224 1433.12 826.152 1438.52 808.071 C 1443.38 790.31 1445.65 771.873 1449.7 753.928 C 1451.45 746.205 1453.66 737.77 1456.52 730.341 C 1478.04 674.395 1508.72 620.662 1544.15 572.422 C 1559.51 551.503 1577.04 532.702 1592.64 512.04 C 1603.78 497.276 1612.15 480.861 1624.05 466.711 C 1630.34 459.165 1640.71 452.277 1648.51 446.015 C 1656.78 439.32 1664.54 432.005 1671.71 424.133 C 1685.96 408.624 1694.86 390.531 1709.04 377.647 C 1727.62 360.757 1757.77 354.723 1778.97 342.291 C 1793.36 333.852 1805.71 319.185 1820.26 309.914 C 1865.78 280.922 1941.47 296.317 1990.95 307.416 C 1991.6 307.479 2001.87 309.337 1996.13 309.993 C 1992.06 310.458 1984.06 310.109 1979.75 309.981 C 1944.62 312.534 1921.65 317.436 1891.83 338.659 C 1882.9 345.011 1874.57 354.792 1865.02 359.743 C 1846.23 369.486 1828.04 370.426 1813.71 388.065 C 1796.95 408.689 1788.03 430.749 1765.91 447.459 C 1757.43 453.867 1750.22 458.58 1740.38 463.274 C 1723.68 471.237 1709.84 473.725 1697.38 488.261 C 1680.51 507.962 1675.38 536.49 1661.16 556.773 C 1646.03 578.34 1623.4 588.731 1607.73 611.922 C 1596.98 627.833 1596.22 647.447 1588.61 659.014 C 1575.86 678.39 1555.44 698.343 1543.17 718.858 C 1531.02 739.157 1528.05 764.3 1517.14 784.885 C 1507.2 803.652 1491.28 818.906 1480.93 838.05 C 1468.77 860.532 1463.26 884.483 1452.35 907.396 C 1442.16 928.791 1430.86 949.62 1420.31 970.837 C 1404.12 1003.88 1389.12 1037.49 1375.33 1071.6 C 1369.89 1085.11 1362.18 1103.82 1357.81 1117.61 L 1355.28 1116.77 z"/>
<path transform="translate(0,0)" fill="#D4AF37" d="M 1990.95 307.416 C 1991.6 307.479 2001.87 309.337 1996.13 309.993 C 1992.06 310.458 1984.06 310.109 1979.75 309.981 C 1984.11 308.958 1987.31 309.618 1990.95 307.416 z"/>
<path transform="translate(0,0)" fill="#ffffff" d="M 672.526 620.173 C 686.475 618.119 700.547 617.019 714.645 616.881 C 771.939 616.311 836.862 627.61 877.442 671.575 C 891.604 686.918 900.656 703.916 913.749 718.551 C 921.219 726.9 936.078 735.952 945.129 745.891 C 957.411 759.378 964.197 771.852 977.193 784.623 C 987.046 794.306 1003.74 804.081 1012.49 813.106 C 1028.54 829.664 1038.47 855.656 1054.09 874.452 C 1062.75 886.199 1074.12 896.537 1082.18 908.687 C 1102.54 939.354 1121.51 969.922 1144.37 998.865 C 1151.54 1007.95 1157.67 1029.22 1164.91 1040.54 C 1174.23 1055.12 1182.96 1071.41 1191.15 1086.65 C 1201.14 1109.19 1210.92 1138.47 1217.72 1162.49 C 1244.25 1256.2 1270.46 1368.67 1271.11 1465.98 C 1270.73 1470.71 1271.53 1473.24 1269.35 1476.84 C 1263.8 1434.91 1255.02 1393.46 1243.11 1352.88 C 1241.42 1347.29 1239.42 1341.47 1237.38 1335.96 C 1214.58 1274.6 1199.32 1208.39 1167.73 1150.77 C 1156.53 1133 1139.59 1118.93 1123.87 1105.93 C 1081.56 1070.94 1084.34 1007.56 1038.84 974.508 C 1018.28 959.575 997.605 940.91 983.341 919.82 C 971.973 903.012 962.549 884.426 949.011 869.263 C 934.031 854.193 901.191 836.525 888.067 819.223 C 871.603 797.516 867.92 779.816 847.014 758.4 C 829.198 740.149 810.346 734.408 794.413 717.874 C 779.061 700.644 770.857 677.088 752.718 662.107 C 725.977 640.021 705.712 630.341 672.526 620.173 z"/>
<path transform="translate(0,0)" fill="#ffffff" d="M 1289.76 1466.98 C 1294.36 1414.54 1301.31 1362.33 1310.59 1310.51 C 1337.05 1168.99 1381.48 1050.86 1450.61 924.397 C 1463.88 900.132 1476.12 876.399 1490.5 852.617 C 1502.58 832.643 1517.23 819.154 1529.67 800.399 C 1540.46 784.124 1546.35 761.582 1556.62 744.036 C 1568.45 723.811 1585.59 712.644 1599.89 695.028 C 1610.61 681.826 1617.41 666.68 1629.65 654.217 C 1645.82 637.43 1671.34 632.951 1688.77 618.38 C 1703.86 605.769 1713.26 587.375 1730.46 576.547 C 1739.24 571.021 1746.54 567.826 1756.76 565.302 C 1769.24 562.223 1781.78 561.663 1794.49 560.256 C 1828.11 557.339 1865.83 553.672 1899.18 560.09 C 1892.63 561.471 1882.31 563.382 1876.17 565.332 C 1856.34 571.076 1838.35 575.774 1820.74 587.52 C 1796.11 603.731 1780.31 630.596 1757.73 649.127 C 1748.89 656.38 1733.27 667.025 1723.63 671.439 C 1689.94 686.863 1692.31 715.537 1676.6 742.14 C 1667.99 756.734 1637.59 775.697 1626.7 790.706 C 1611.91 805.493 1603.34 825.71 1591.14 842.045 C 1582.22 853.998 1571.4 864.269 1562.18 876.552 C 1550.86 891.643 1545.34 912.184 1535.05 926.503 C 1484.83 996.38 1443.28 1071.97 1402.46 1147.58 C 1349.7 1248.39 1314.9 1357.66 1291.68 1468.78 L 1289.76 1466.98 z"/>
<path transform="translate(0,0)" fill="#ffffff" d="M 698.902 859.171 C 735.149 855.819 799.787 850.686 834.647 864.728 C 844.844 868.835 865.39 884.26 879.018 889.884 C 888.227 893.684 918.574 903.729 923.568 908.548 C 936.992 921.5 947.603 939.043 962.329 953.432 C 982.165 972.814 1005.38 981.593 1024.79 999.587 C 1046.1 1019.79 1058.13 1046.68 1078.03 1068.36 C 1090.05 1081.46 1101.74 1094.09 1115.24 1105.8 C 1134.85 1122.79 1158.83 1138.97 1169.71 1163.35 C 1184.98 1197.56 1196.6 1233.24 1208.67 1268.66 C 1220.51 1304.1 1233.59 1338.75 1242.58 1375.02 C 1251.84 1413.32 1259.21 1452.05 1264.66 1491.08 C 1265.59 1496.82 1267.03 1503.67 1266.5 1509.34 C 1265.53 1506.45 1262.8 1498.78 1262.37 1496.22 C 1251.33 1456.27 1236.11 1406.53 1214.57 1371.2 C 1207.21 1359.13 1193.36 1346.76 1185.59 1333.33 C 1177.65 1319.6 1170.46 1296.64 1160.56 1285.53 C 1144.08 1267.03 1126.67 1252.65 1109.96 1233.43 C 1097.73 1219.36 1086.21 1196.19 1075.56 1185.48 C 1064.07 1173.94 1039.58 1162.06 1024.38 1148.61 C 997.81 1125.12 976.992 1099.92 951.706 1075.31 C 942.721 1033.26 922.322 1040.79 897.351 1014.27 C 889.725 1006.17 888.783 976.797 874.159 967.875 C 866.879 963.433 861.487 958.217 852.414 955.883 C 819.776 944.072 816.524 939.201 797.247 911.75 C 775.598 880.921 747.111 868.663 711.066 862.87 C 705.938 861.841 701.894 861.448 696.706 860.928 L 698.902 859.171 z"/>
<path transform="translate(0,0)" fill="#ffffff" d="M 1294.54 1480.59 C 1324.13 1319.42 1386.31 1166 1477.27 1029.7 C 1489.74 1010.67 1503.85 991.363 1517.64 973.305 C 1540.36 943.548 1555.75 905.123 1587.42 884.976 C 1596.57 879.161 1611.11 869.697 1618 861.911 C 1630.2 848.109 1635.59 831.249 1650.29 818.85 C 1669.29 802.831 1690.55 805.952 1712.8 795.278 C 1732.46 785.855 1746.71 767.053 1762.15 757.031 C 1797.55 734.065 1881.31 737.803 1920.73 745.159 C 1930.12 746.939 1939.47 748.954 1948.76 751.204 C 1931.97 754.767 1916.05 757.903 1899.93 764.157 C 1886.78 769.256 1877.5 779.347 1865.97 785.511 C 1840.13 799.324 1807.79 804.878 1786.27 825.705 C 1767.71 843.661 1759.29 867.43 1738.93 883.817 C 1716.48 901.899 1694.43 902.319 1671.08 921.489 C 1653.82 935.667 1649.33 952.757 1636.31 965.501 C 1614.82 986.542 1591.01 1004.3 1569.46 1026.09 C 1550.16 1045.6 1541.67 1063.03 1525.52 1083.2 C 1513.47 1098.25 1496.33 1115.47 1483.4 1130.51 C 1457.17 1161.06 1430.75 1193.12 1408.8 1226.89 C 1358.66 1304.87 1320.95 1390.17 1297.01 1479.73 L 1294.54 1480.59 z"/>
<path transform="translate(0,0)" fill="#ffffff" d="M 1008.74 539.809 C 1018.78 504.637 1036.61 459.616 1050.49 425.587 C 1067.12 442.897 1078.33 458.408 1087.61 480.684 C 1103.17 518.023 1098.57 553.016 1111.34 591.879 C 1123.61 629.252 1148.55 652.801 1162.61 686.661 C 1173.45 712.754 1168.9 754.119 1178.82 784.917 C 1186.09 807.484 1192.79 819.185 1201.83 840.615 C 1213.74 868.841 1226.17 905.719 1232.72 935.616 C 1234.18 943.272 1235.58 950.94 1236.92 958.619 L 1237.13 1144.75 C 1237.95 1151.96 1238.31 1211.45 1237.23 1217.33 C 1236.2 1214.08 1236.04 1213.25 1235.5 1209.86 C 1227.44 1174.87 1215.97 1143.27 1205.5 1109.31 C 1195.15 1075.71 1187.53 1039.79 1177.67 1005.69 C 1160.57 947.312 1141.58 889.506 1120.73 832.361 C 1115.32 817.228 1111.72 801.532 1106.24 787.011 C 1095.71 759.147 1069.88 736.615 1059.24 709.351 C 1051.04 688.331 1054.08 662.032 1048.12 640.228 C 1044.23 626.02 1038.08 611.738 1032.28 598.172 C 1023.87 578.519 1016.09 559.887 1008.74 539.809 z"/>
<path transform="translate(0,0)" fill="#D4AF37" d="M 1237.13 1144.75 C 1237.95 1151.96 1238.31 1211.45 1237.23 1217.33 C 1236.2 1214.08 1236.04 1213.25 1235.5 1209.86 C 1238.38 1205.01 1236.19 1156.15 1237.13 1144.75 z"/>
<path transform="translate(0,0)" fill="#ffffff" d="M 743.592 456.485 C 753.217 457.069 767.594 457.305 776.628 458.557 C 823.013 464.988 872.735 480.634 904.655 516.833 C 913.958 527.384 920.753 539.058 929.109 549.567 C 940.18 563.49 958.408 583.004 971.626 594.738 C 967.769 621.286 966.764 650.406 964.9 677.197 C 964.244 686.627 964.091 705.097 962.761 713.863 C 963.085 716.597 963.483 719.322 963.954 722.034 C 966.681 706.798 980.477 629.949 986.101 619.06 C 993.999 630.259 1005.27 636.58 1015.4 653.092 C 1031.05 678.573 1039.59 703.758 1055.74 728.73 C 1063.58 740.862 1080.49 756.605 1086.38 768.28 C 1100.18 795.602 1112.76 828.004 1123.38 856.775 C 1149.05 926.315 1176.65 1004.19 1192.64 1076.54 C 1175.65 1048.55 1162.27 1019.91 1146.28 991.653 C 1137.79 978.346 1127.09 966.721 1118.24 953.616 C 1106.17 935.72 1096.34 915.698 1083.22 898.555 C 1073.8 886.248 1062.53 875.206 1053.26 862.689 C 1041.91 847.377 1034.02 830.262 1022.98 814.818 C 1013.59 801.951 987.79 788.396 978.192 774.96 C 967.926 760.589 969.448 745.799 956.985 728.822 C 943.113 709.924 925.745 700.198 912.43 682.703 C 896.269 661.469 886.627 633.452 869.013 612.871 C 857.952 598.893 835.283 588.617 825.696 574.267 C 790.511 521.604 787.452 475.767 713.909 461.644 C 719.947 458.404 736.488 456.963 743.592 456.485 z"/>
<path transform="translate(0,0)" fill="#D4AF37" d="M 962.761 713.863 C 963.085 716.597 963.483 719.322 963.954 722.034 C 964.067 723.644 964.213 725.413 963.931 726.999 L 962.964 727.7 C 962.988 728.174 963.048 728.109 962.838 728.425 L 962.791 728.4 C 961.365 726.004 962.362 716.796 962.761 713.863 z"/>
<path transform="translate(0,0)" fill="#ffffff" d="M 683.428 968.394 C 744.158 963.159 819.09 1002.59 873.633 1027.35 C 882.722 1031.48 901.204 1048.73 910.104 1056.1 C 925.258 1068.64 941.541 1075.38 956.243 1087.71 C 973.21 1104.26 987.306 1124.29 1004.6 1140.8 C 1014.6 1150.2 1025.42 1158.7 1036.93 1166.2 C 1044.5 1171.08 1064.3 1182.81 1069.19 1188.25 C 1083.69 1204.4 1094.27 1224.87 1108.87 1242.27 C 1124.38 1260.74 1141.03 1274.73 1156.48 1292.68 C 1168.38 1306.5 1174.11 1324.93 1183.52 1340.48 C 1191.71 1354.36 1206.68 1367.8 1214.07 1381.92 C 1234.06 1420.15 1247.63 1467.84 1259.56 1509.03 C 1250.47 1494.88 1241.57 1480.06 1232.75 1465.71 C 1214.35 1435.31 1194.29 1405.1 1175.64 1375.45 C 1158.58 1348.31 1146.95 1328.4 1119.19 1311.9 C 1112.72 1305.34 1102.94 1291.59 1098.42 1284.05 C 1075.71 1246.23 1037.35 1245.06 1004.75 1223.39 C 985.898 1210.86 976.119 1184.87 952.466 1173.58 C 927.538 1161.69 901.373 1161.95 877.711 1147.77 C 856.484 1133.73 845.692 1107.73 822.529 1094.93 C 811.899 1088.86 795.509 1082.48 783.163 1080.93 C 755.606 1077.47 751.079 1065.3 732.95 1046.12 C 699.058 1010.25 661.719 996.042 613.641 988.246 C 636.963 983.499 662.786 972.274 683.428 968.394 z"/>
<path transform="translate(0,0)" fill="#ffffff" d="M 1092.63 333.202 C 1099.73 322.02 1106.92 310.456 1115.91 300.679 C 1177.53 233.788 1172.86 338.532 1182.94 374.739 C 1185.7 385.011 1189.6 395.798 1194.21 405.435 C 1217.42 454.009 1199.99 505.755 1222.8 554.521 C 1234.86 580.302 1244.97 616.942 1246.6 645.304 C 1248.32 675.325 1243.72 709.156 1241.66 739.557 C 1238.88 781.64 1237.28 823.793 1236.88 865.966 C 1238.13 881.652 1237.19 918.463 1236.94 935.314 L 1235.85 935.191 C 1235.04 932.797 1234.95 932.322 1234.58 929.852 L 1232.51 921.894 C 1225.93 893.147 1213.02 858.653 1202.66 830.889 C 1195.32 811.219 1184.84 795.42 1180.83 773.443 C 1176.34 748.811 1177.3 724.688 1175.94 699.595 C 1174.43 671.809 1168.13 646.36 1164.84 619.806 C 1164.66 602.049 1165.45 585.275 1163.31 567.575 C 1159.16 533.289 1145.1 504.321 1133.98 472.324 C 1128.05 455.242 1124.98 433.734 1119.74 415.593 C 1111.61 387.52 1102.19 360.825 1092.63 333.202 z"/>
<path transform="translate(0,0)" fill="#D4AF37" d="M 1236.88 865.966 C 1238.13 881.652 1237.19 918.463 1236.94 935.314 L 1235.85 935.191 C 1235.04 932.797 1234.95 932.322 1234.58 929.852 C 1236.47 926.598 1236.03 926.212 1236.07 922.112 C 1235.76 912.305 1235.6 875.222 1236.88 865.966 z"/>
<path transform="translate(0,0)" fill="#ffffff" d="M 1693.85 1172.42 C 1721.96 1172.39 1758.37 1180.21 1785.26 1188.23 C 1763.43 1192.55 1730.31 1203.86 1710.27 1214.17 C 1701.66 1218.6 1686.88 1231.3 1679.58 1238.17 C 1667.57 1249.45 1654.1 1264.41 1640.24 1273.19 C 1618.83 1286.74 1594.3 1283.17 1571.41 1296.34 C 1549.72 1308.82 1542.25 1327.17 1526.04 1341.04 C 1515.73 1349.87 1490.92 1352.4 1475.66 1364.03 C 1450.46 1383.24 1437.11 1406.4 1413.33 1427.21 C 1387.24 1450.03 1364.28 1462.38 1339.51 1487.3 C 1324.13 1502.39 1308.44 1522.65 1294.17 1536 C 1301.75 1521.9 1311.86 1493.28 1320.46 1475.69 C 1347.91 1420.41 1382.67 1369.07 1423.81 1323.05 C 1442.05 1302.81 1449.81 1299.28 1470.08 1282.88 C 1505.6 1254.14 1542.44 1222.6 1583.92 1202.64 C 1597.52 1196.11 1620.24 1195.72 1632.98 1190.53 C 1659.58 1179.69 1664.17 1173.95 1693.85 1172.42 z"/>
<path transform="translate(0,0)" fill="#ffffff" d="M 1461.22 707.784 C 1468.21 681.586 1477.7 656.267 1487.57 631.022 C 1492.84 617.519 1497.89 604.925 1502.65 591.161 C 1507.34 577.583 1507.1 548.481 1512.47 537.818 C 1525.84 511.235 1544.41 481.452 1562.12 457.685 C 1572.95 443.145 1584.48 430.685 1594.14 415.042 C 1604.28 398.617 1607.86 376.573 1618.9 361.514 C 1630.72 345.368 1651.8 331.509 1665.24 316.819 C 1678.2 302.636 1682.83 289.188 1698.56 276.119 C 1720.07 258.253 1734.01 259.497 1758.56 252.019 C 1772.43 247.083 1784.56 238.797 1798.42 233.583 C 1814.27 227.624 1827.47 226.256 1844.09 226.608 C 1865.27 227.056 1885.69 228.722 1906.71 230.74 L 1904.19 233.052 C 1897.32 233.459 1883.26 236.534 1876.54 238.335 C 1870 240.019 1863.61 242.25 1857.44 245.003 C 1848.38 249.138 1839.25 255.446 1830.4 260.284 C 1815.79 268.281 1800.57 272.836 1788.45 284.765 C 1779.11 293.947 1769.86 312.01 1760.51 319.943 C 1742.17 335.491 1722.72 336.719 1703.92 355.397 C 1681.66 377.51 1677.25 404.377 1658.41 428.558 C 1645.18 445.546 1627.95 453.431 1614.54 471.07 C 1604.19 484.695 1595.32 500.909 1585.12 514.118 C 1573.42 529.27 1560.2 544.242 1548.3 559.377 C 1534.16 577.622 1521.1 596.672 1509.18 616.43 C 1495.62 639.001 1483.31 662.817 1472.05 686.599 C 1468.85 693.349 1465.74 700.127 1461.95 706.565 L 1461.22 707.784 z"/>
<path transform="translate(0,0)" fill="#ffffff" d="M 279.465 1197.64 C 285.292 1176.18 291.511 1154.83 298.121 1133.6 C 303.984 1114.24 309.232 1097 316.259 1078.08 C 323.982 1057.29 334.123 1047.69 343.412 1028.54 C 352.818 1009.15 353.952 988.218 357.576 967.293 C 361.807 942.864 380.946 926.637 390.29 903.895 C 399.508 881.463 400.865 856.177 413.417 835.067 C 425.54 814.679 442.484 805.072 452.903 782.424 C 465.205 755.29 468.715 726.739 484.94 701.03 C 514.555 654.101 569.943 637.044 621.542 627.548 C 630.626 625.876 643.383 623.411 652.57 623.526 C 663.001 623.656 676.353 627.011 686.837 629.172 L 686.571 630.493 C 668.81 634.206 648.382 640.205 632.565 649.015 C 596.763 668.958 528.262 738.819 506.866 771.483 C 499.32 783.094 492.982 795.447 487.952 808.349 C 485.191 815.309 478.141 834.63 474.562 840.065 C 459.599 862.324 440.352 878.548 425.728 901.511 C 412.619 922.096 407.943 947.356 396.463 967.234 C 385.004 984.205 367.397 997.283 358.212 1015.94 C 346.393 1039.96 350.956 1069.93 331.457 1090.83 C 316.213 1107.18 315.211 1127.27 306.866 1145.32 C 298.895 1162.56 284.849 1177.62 281.593 1198.41 L 279.465 1197.64 z"/>
<path transform="translate(0,0)" fill="#ffffff" d="M 428.818 1458.48 C 357.074 1341.07 364.334 1159.19 452.608 1049.18 C 488.764 1004.12 563.9 987.596 619.982 994.463 L 624.713 995.229 L 625.11 996.18 L 621.869 997.734 C 581.613 1012.9 517.277 1071.22 490.709 1104.61 C 475.287 1123.89 462.055 1144.83 451.258 1167.04 C 405.582 1257.41 397.515 1362.18 428.818 1458.48 z"/>
<path transform="translate(0,0)" fill="#ffffff" d="M 1961.02 316.219 C 1986.46 312.738 2017.34 315.531 2042.21 322.439 C 2078.05 332.396 2095.5 347.663 2120.7 374.21 C 2130.18 384.195 2136.92 393.498 2142.62 406.116 C 2147 415.799 2151.6 431.107 2158.23 439.065 C 2169.05 453.104 2181.19 466.06 2191.55 480.468 C 2196.36 487.169 2200.94 493.868 2205.41 500.784 C 2210.98 509.404 2216.5 520.581 2223.08 528.352 C 2238.62 545.861 2253.97 562.227 2268 581.063 C 2281.47 599.139 2288.01 618.94 2300.46 637.252 C 2311.08 652.869 2327.53 665.041 2338.84 680.137 C 2345.68 689.269 2348.9 701.283 2355.09 710.861 C 2363.37 723.149 2376.87 733.597 2384.93 746.518 C 2401.31 772.748 2414.47 801.537 2429.35 828.704 L 2428.08 829.983 C 2424.53 820.909 2399.2 786.816 2392.27 777.011 C 2388.89 772.223 2378.43 762.021 2374.17 755.865 C 2367.51 746.229 2364.19 732.126 2356.58 724.268 C 2345.86 713.208 2331.84 706.907 2322.27 693.748 C 2312.79 680.705 2307.73 662.216 2296.53 650.786 C 2281.57 635.528 2261.07 627.213 2247.38 609.732 C 2231.06 588.253 2222.45 561.508 2204.05 541.348 C 2201.27 538.588 2197.81 535.173 2194.47 533.152 C 2174.2 520.893 2154.68 508.777 2141.26 488.535 C 2132.59 474.517 2123.36 462.184 2112.62 449.841 C 2087.69 421.205 2058.78 399.247 2029.41 375.704 C 2019.95 368.121 2010.11 356.842 2000.86 348.426 C 1987.74 336.496 1975.4 326.678 1961.02 316.219 z"/>
<path transform="translate(0,0)" fill="#ffffff" d="M 1965.92 939.841 C 1998.43 935.107 2035.56 948.731 2061.76 967.996 C 2118.32 1009.59 2150.23 1081.31 2160.1 1149.35 C 2172.21 1232.79 2151.18 1337.64 2127.59 1418.59 L 2125.37 1417.58 C 2127.76 1408.64 2130.21 1389.9 2131.35 1380.59 C 2139.4 1312.74 2134.25 1243.97 2116.19 1178.07 C 2092.75 1091.23 2047.46 990.097 1966.13 943.375 L 1961.83 940.947 L 1962.26 940.112 L 1965.92 939.841 z"/>
<path transform="translate(0,0)" fill="#ffffff" d="M 301.478 892.853 C 317.035 866.56 336.672 840.712 350.666 813.054 C 354.954 804.58 368.52 793.802 374.081 783.685 C 383.729 766.133 386.372 748.019 395.24 730.364 C 405.125 714.14 417.564 701.97 428.092 684.222 C 439.522 664.951 449.444 634.42 461.243 617.94 C 475.868 597.516 496.381 578.901 512.675 557.527 C 528.937 536.196 543.005 507.152 558.495 488.508 C 565.826 479.853 574.537 472.468 584.274 466.651 C 625.134 442.172 688.611 441.869 733.58 453.037 C 725.415 454.387 713.013 456.312 705.232 458.527 C 658.269 474.951 647.9 491.873 609.903 522.682 C 596.102 533.873 576.877 540.891 564.324 556.805 C 548.17 577.283 542.699 597.585 524.317 616.708 C 506.541 635.201 485.001 641.263 469.149 660.187 C 460.264 670.794 453.206 687.73 446.869 700.347 C 441.083 711.776 434.508 722.787 427.189 733.301 C 417.367 747.237 404.235 760.347 394.138 774.543 C 384.185 788.535 376.429 803.206 366.321 816.987 C 359.904 825.736 347.845 833.735 341.651 841.498 C 328.325 858.199 315.947 876.851 303.178 894.121 L 301.478 892.853 z"/>
<path transform="translate(0,0)" fill="#ffffff" d="M 801.28 191.259 C 802.464 191.024 805.351 190.853 806.694 190.733 C 812.907 190.849 819.118 191.012 825.328 191.222 C 859.706 197.521 879.451 205.511 907.765 225.407 C 944.53 251.24 948.893 281.557 972.557 316.073 C 984.982 334.196 1004.43 342.606 1016.81 363.757 C 1003.03 406.472 995.276 438.611 986.921 482.793 C 985.735 479.034 983.248 470.079 981.328 467.034 C 971.726 451.8 962.448 439.189 953.967 423.153 C 939.406 395.621 928.599 365.221 912.645 338.692 C 903.326 323.196 884.293 310.623 874.87 294.797 C 853.882 259.025 851.783 216.848 810.507 195.542 C 809.565 195.057 808.619 194.581 807.667 194.115 L 801.28 191.259 z"/>
<path transform="translate(0,0)" fill="#ffffff" d="M 974.474 600.888 C 985.731 500.852 999.702 398.858 1044.43 307.386 C 1050.81 294.334 1068.28 257.848 1085.79 261.516 C 1103.4 265.206 1122.6 272.574 1140.2 277.354 C 1102.34 296.41 1084.99 337.686 1068.26 374.33 C 1045.55 424.63 1025.51 476.092 1008.22 528.504 C 998.504 557.622 989.828 587.076 982.206 616.811 C 978.509 632.446 973.306 652.913 970.648 668.596 C 969.314 668.171 969.35 668.287 968.698 667.203 C 969.931 645.043 971.858 622.927 974.474 600.888 z"/>
<path transform="translate(0,0)" fill="#ffffff" d="M 837.165 1502.14 C 788.149 1446.89 750.726 1381.81 748.003 1306.47 C 745.171 1228.14 789.225 1177.25 867.752 1174.24 C 862.08 1179.23 853.119 1183.99 846.592 1189.11 C 828.617 1203.01 809.513 1236.96 802.722 1258.79 C 783.885 1319.34 789.938 1386.88 811.364 1445.96 C 818.656 1466.06 827.621 1483.34 837.165 1502.14 z"/>
<path transform="translate(0,0)" fill="#ffffff" d="M 1785.24 1195.65 C 1783.88 1195.38 1781.68 1195.24 1780.52 1194.35 C 1780.16 1194.07 1780.47 1193.36 1780.86 1193.33 C 1786.76 1192.85 1795.34 1192.25 1801.01 1193.69 C 1898.19 1206.23 1945.27 1285.08 1932.73 1377.51 C 1926.54 1423.14 1908.23 1464.01 1887.08 1504.5 C 1905.67 1423.06 1904.88 1333.81 1860.49 1259.57 C 1844.52 1232.87 1815.21 1205.2 1785.24 1195.65 z"/>
<path transform="translate(0,0)" fill="#D4AF37" d="M 1785.24 1195.65 C 1783.88 1195.38 1781.68 1195.24 1780.52 1194.35 C 1780.16 1194.07 1780.47 1193.36 1780.86 1193.33 C 1786.76 1192.85 1795.34 1192.25 1801.01 1193.69 C 1797.09 1194.09 1786.46 1192.5 1785.24 1195.65 z"/>
<path transform="translate(0,0)" fill="#ffffff" d="M 1950.57 757.658 C 1957.22 758.246 1962.89 758.698 1969.48 759.95 C 2015.92 764.98 2043.34 782.624 2068.56 819.455 C 2079.09 834.847 2096.41 847.949 2103.2 867.088 C 2109.08 878.889 2113.7 900.391 2119.61 909.429 C 2129.71 924.878 2140.72 933.364 2149.69 951.634 C 2156.65 965.823 2157.73 981.509 2163.97 993.667 C 2172.05 1009.4 2185.38 1021.02 2192.79 1038.65 C 2198.36 1049.69 2198.2 1064.93 2202.32 1075.98 C 2206.4 1086.9 2212.83 1098.14 2217.73 1109.1 C 2222.61 1120.03 2225.59 1138.51 2230.47 1148.04 L 2227.73 1146.87 C 2225.18 1139.16 2217.39 1126.12 2213.75 1117.16 C 2208.33 1103.8 2203.21 1089.3 2197.25 1076.34 C 2194.65 1070.68 2185.7 1060.48 2182.57 1054.34 C 2178.78 1046.91 2174.84 1035.94 2172.31 1028.08 C 2164.44 1003.66 2145.47 997.829 2131.9 976.711 C 2120.81 959.444 2118.21 942.243 2108.62 924.622 C 2100.67 910.003 2087.13 901.248 2077.14 888.262 C 2071.19 880.459 2069.02 869.155 2063.4 861.341 C 2042.79 832.676 2018.19 803.656 1991.45 780.587 C 1982.49 772.852 1969.51 766.321 1959 761.431 C 1955.46 760.139 1953.78 759.584 1950.57 757.658 z"/>
<path transform="translate(0,0)" fill="#ffffff" d="M 520.404 424.368 C 554.845 350.632 613.383 235.422 684.397 191.491 C 726.717 165.311 769.715 173.856 814.711 185.327 C 817.94 185.87 820.001 186.495 823.103 187.379 C 817.085 188.131 797.389 188.096 790.648 187.993 L 783.814 188.942 C 682.942 190.425 590.652 319.844 541.161 395.531 C 535.38 404.372 526.827 416.751 521.946 425.973 L 520.404 424.368 z"/>
<path transform="translate(0,0)" fill="#D4AF37" d="M 814.711 185.327 C 817.94 185.87 820.001 186.495 823.103 187.379 C 817.085 188.131 797.389 188.096 790.648 187.993 C 795.395 186.92 814.304 187.645 814.711 185.327 z"/>
<path transform="translate(0,0)" fill="#ffffff" d="M 557.088 991.632 C 562.549 956.225 569.566 922.997 596.497 896.663 C 620.801 872.898 652.956 863.357 686.39 863.581 C 691.195 863.849 696.445 864.251 701.213 864.353 L 701.798 865.472 C 685.709 873.089 678.972 874.443 662.983 884.887 C 625.636 909.281 606.549 943.228 597.525 985.819 C 584.023 987.595 570.543 989.533 557.088 991.632 z"/>
<path transform="translate(0,0)" fill="#ffffff" d="M 1878.94 53.4878 C 1877.04 53.2066 1876.62 52.7502 1874.92 51.7787 C 1877.57 49.6968 1885.88 50.4834 1889.25 50.8913 C 1912.58 51.5988 1937.35 63.9243 1952.55 80.9798 C 1997.1 130.97 2021.33 235.563 2028.47 300.062 L 2026.07 300.88 C 2025.43 298.038 2024.31 293.594 2023.36 290.636 C 1999.23 215.215 1964.35 129.062 1907.13 72.6962 C 1899.27 64.9508 1888.24 58.6552 1878.94 53.4878 z"/>
<path transform="translate(0,0)" fill="#ffffff" d="M 1909.7 564.692 C 1940.5 568.636 1964 578.573 1982.94 604.457 C 2018.11 652.523 2039.91 726.822 2056.59 783.945 L 2054.7 785.238 C 2053.31 781.246 2048.78 771.141 2046.81 767.254 C 2018.39 711.197 1982.96 642.702 1936.23 600.012 C 1922.95 587.879 1896.46 574.361 1879.97 568.444 C 1884.42 566.054 1903.76 565.081 1909.7 564.692 z"/>
<path transform="translate(0,0)" fill="#ffffff" d="M 558.773 1043.29 C 569.938 1034.53 579.909 1027.12 591.794 1019.44 C 585.668 1084.74 587.709 1153.42 608.519 1216.16 L 606.652 1217.18 C 578.907 1157.38 563.948 1110.09 558.773 1043.29 z"/>
<path transform="translate(0,0)" fill="#ffffff" d="M 1924.5 239.618 C 1923.31 238.978 1921.84 238.01 1920.65 237.283 L 1921.48 236.597 L 1927.28 237.438 C 1970.1 249.024 1994.76 268.802 2014.74 308.666 C 2002.17 305.743 1989.57 302.974 1976.94 300.359 C 1967.49 277.954 1946.82 249.835 1924.5 239.618 z"/>
<path transform="translate(0,0)" fill="#ffffff" d="M 2008.79 362.134 C 2017.4 370.078 2027.57 379.936 2036.78 386.8 C 2039.44 430.77 2038.23 460.896 2030.72 504.933 C 2027.63 504.138 2029.08 496.96 2028.87 493.467 C 2029.47 442.679 2025.23 410.26 2008.79 362.134 z"/>
<path transform="translate(0,0)" fill="#D4AF37" d="M 2030.72 504.933 C 2030.66 506.709 2027.01 527.158 2026.3 528.452 L 2025.58 528.424 C 2026.29 529.245 2028.43 495.978 2028.87 493.467 C 2029.08 496.96 2027.63 504.138 2030.72 504.933 z"/>
<path transform="translate(0,0)" fill="#D4AF37" d="M 281.593 1198.41 C 280.666 1200.7 275.223 1216.98 274.543 1217.41 C 273.834 1214.91 278.21 1200.44 279.465 1197.64 L 281.593 1198.41 z"/>
<path transform="translate(0,0)" fill="#D4AF37" d="M 1271.11 1465.98 C 1272.37 1475.69 1272.22 1483.15 1271.3 1492.79 C 1270.45 1487 1269.9 1482.68 1269.35 1476.84 C 1271.53 1473.24 1270.73 1470.71 1271.11 1465.98 z"/>
<path transform="translate(0,0)" fill="#D4AF37" d="M 1292.02 1498.58 C 1292.26 1493.92 1293.21 1485.04 1294.54 1480.59 L 1297.01 1479.73 C 1295.38 1486.82 1294.24 1491.68 1292.02 1498.58 z"/>
<path transform="translate(0,0)" fill="#D4AF37" d="M 2127.59 1418.59 C 2127.21 1420.99 2126.52 1423.06 2125.75 1425.4 L 2124.42 1429.35 C 2123.94 1430.74 2123.35 1433.64 2122.67 1434.48 L 2122.62 1434.43 C 2121.96 1431.45 2124.6 1421 2125.37 1417.58 L 2127.59 1418.59 z"/>
<path transform="translate(0,0)" fill="#D4AF37" d="M 1291.68 1468.78 C 1291.23 1471.67 1289.92 1481.06 1288.52 1483.04 C 1287.62 1480.56 1289.09 1469.95 1289.76 1466.98 L 1291.68 1468.78 z"/>
<path transform="translate(0,0)" fill="#D4AF37" d="M 301.478 892.853 L 303.178 894.121 C 300.923 898.147 294.915 905.556 291.921 909.274 C 294.122 904.981 298.358 896.504 301.478 892.853 z"/>
<path transform="translate(0,0)" fill="#D4AF37" d="M 2028.47 300.062 C 2029.34 302.401 2030.31 312.099 2030.67 315.097 C 2028.21 309.727 2027.43 306.66 2026.07 300.88 L 2028.47 300.062 z"/>
<path transform="translate(0,0)" fill="#D4AF37" d="M 2056.59 783.945 C 2058.47 788.975 2058.93 792.353 2060.07 797.459 C 2058.11 793.038 2056.5 789.93 2054.7 785.238 L 2056.59 783.945 z"/>
<path transform="translate(0,0)" fill="#D4AF37" d="M 970.648 668.596 C 970.56 670.095 970.191 675.341 968.573 676.007 C 967.322 674.651 968.027 668.928 968.698 667.203 C 969.35 668.287 969.314 668.171 970.648 668.596 z"/>
<path transform="translate(0,0)" fill="#D4AF37" d="M 514.695 438.175 C 516.376 433.706 518.023 428.403 520.404 424.368 L 521.946 425.973 C 520.151 429.625 516.906 434.541 514.695 438.175 z"/>
<path transform="translate(0,0)" fill="#D4AF37" d="M 1357.81 1117.61 C 1357.09 1120.29 1356.37 1122.14 1355.43 1124.73 L 1355.51 1124.65 L 1354.31 1125.05 L 1354.67 1125.9 L 1354.55 1126.05 C 1353.51 1124.83 1354.96 1118.33 1355.28 1116.77 L 1357.81 1117.61 z"/>
<path transform="translate(0,0)" fill="#D4AF37" d="M 2227.73 1146.87 L 2230.47 1148.04 C 2230.79 1149.28 2232.21 1153.33 2231.4 1154.33 C 2230.05 1154.74 2228.08 1147.8 2227.73 1146.87 z"/>
<path transform="translate(0,0)" fill="#D4AF37" d="M 608.519 1216.16 C 608.861 1217.18 611.378 1222.74 610.406 1223.52 C 609.213 1223.28 607.266 1218.4 606.652 1217.18 L 608.519 1216.16 z"/>
<path transform="translate(0,0)" fill="#D4AF37" d="M 1906.71 230.74 C 1908.21 230.835 1910.94 230.692 1912.28 231.535 C 1912.31 233.361 1905.35 233.018 1904.19 233.052 L 1906.71 230.74 z"/>
<path transform="translate(0,0)" fill="#D4AF37" d="M 1281.11 1501.82 C 1281.1 1502.42 1281.2 1507.95 1280.18 1508.58 C 1278.92 1509.37 1278.75 1505.61 1278.64 1504.84 C 1279.46 1503.82 1280.25 1502.82 1281.11 1501.82 z"/>
<path transform="translate(0,0)" fill="#D4AF37" d="M 686.837 629.172 C 687.67 629.245 689.326 629.074 689.77 630.028 C 689.295 630.973 687.338 630.517 686.571 630.493 L 686.837 629.172 z"/>
<path transform="translate(0,0)" fill="#D4AF37" d="M 694.882 859.115 L 698.902 859.171 L 696.706 860.928 C 696.049 860.299 695.499 859.786 694.882 859.115 z"/>
</svg>